<?xml version="1.0" standalone="no"?>
<!DOCTYPE svg PUBLIC "-//W3C//DTD SVG 20010904//EN"
 "http://www.w3.org/TR/2001/REC-SVG-20010904/DTD/svg10.dtd">
<svg version="1.0" xmlns="http://www.w3.org/2000/svg"
 width="512.000000pt" height="512.000000pt" viewBox="0 0 512.000000 512.000000"
 preserveAspectRatio="xMidYMid meet">

<g transform="translate(0.000000,512.000000) scale(0.100000,-0.100000)"
fill="#000000" stroke="none">
<path d="M0 2560 l0 -2560 2560 0 2560 0 0 2560 0 2560 -2560 0 -2560 0 0
-2560z m2667 1611 c17 -11 37 -35 43 -54 12 -32 36 -45 509 -280 419 -208 504
-247 548 -250 111 -8 222 -91 276 -205 l32 -67 0 -765 0 -765 -26 -55 c-41
-85 -90 -135 -177 -177 l-76 -38 -1239 -3 c-814 -2 -1259 1 -1295 8 -118 22
-220 100 -270 208 l-27 57 0 770 0 770 28 57 c37 75 99 138 172 174 l60 29
1070 3 1070 3 -355 178 c-329 166 -357 178 -388 169 -99 -27 -191 83 -146 177
33 70 123 97 191 56z"/>
<path d="M1255 3428 c-48 -17 -93 -56 -118 -101 l-22 -42 -3 -700 c-2 -485 0
-716 8 -751 7 -33 23 -66 46 -92 66 -78 -32 -73 1371 -70 l1251 3 44 30 c23
17 54 51 68 75 l25 45 0 731 0 731 -30 49 c-23 37 -44 56 -84 77 l-55 27
-1235 -1 c-835 0 -1246 -4 -1266 -11z m881 -198 c322 -81 534 -353 534 -685 0
-313 -184 -568 -485 -671 -70 -24 -96 -28 -205 -28 -90 -1 -143 4 -189 17
-233 64 -413 237 -492 472 -21 61 -24 88 -24 215 1 154 12 203 70 320 141 282
483 438 791 360z m1593 -204 c32 -29 29 -88 -5 -115 -26 -21 -37 -21 -466 -21
-477 0 -490 1 -504 55 -8 33 12 80 39 93 15 7 168 10 468 9 424 -2 448 -3 468
-21z m-186 -543 c128 -70 182 -230 121 -360 -26 -55 -93 -117 -147 -138 -98
-37 -236 -7 -304 67 -115 125 -86 332 58 424 81 51 186 53 272 7z"/>
<path d="M1872 3089 c-173 -29 -334 -158 -405 -324 -25 -58 -47 -162 -47 -221
0 -122 64 -284 149 -372 180 -188 458 -230 676 -103 158 91 260 257 272 441
18 272 -169 519 -435 575 -74 16 -130 17 -210 4z m133 -73 c23 -34 5 -66 -36
-66 -41 0 -61 40 -34 70 24 27 51 25 70 -4z m-177 -28 c32 -32 -4 -87 -48 -73
-25 8 -37 50 -20 70 15 18 51 20 68 3z m354 -13 c9 -21 8 -28 -7 -45 -24 -27
-51 -25 -70 4 -23 34 -5 66 36 66 22 0 32 -6 41 -25z m-518 -71 c22 -8 37 -39
30 -59 -18 -47 -84 -37 -84 13 0 42 21 59 54 46z m648 -11 c10 -9 18 -24 18
-34 0 -21 -26 -49 -45 -49 -20 0 -45 28 -45 50 0 20 25 50 42 50 6 0 20 -7 30
-17z m-305 -29 c12 -19 11 -24 -5 -44 -36 -45 -99 -1 -72 50 14 27 57 23 77
-6z m-159 -26 c28 -28 7 -78 -33 -78 -27 0 -45 18 -45 45 0 27 18 45 45 45 12
0 26 -5 33 -12z m314 -14 c14 -31 1 -57 -31 -62 -28 -4 -51 14 -51 42 0 50 62
65 82 20z m-571 -85 c16 -30 -3 -69 -34 -69 -29 0 -47 17 -47 45 0 45 60 63
81 24z m830 0 c16 -30 -3 -69 -34 -69 -29 0 -47 17 -47 45 0 45 60 63 81 24z
m-683 -11 c28 -28 7 -78 -33 -78 -42 0 -59 44 -29 74 18 19 45 21 62 4z m524
-5 c35 -31 16 -73 -33 -73 -15 0 -29 7 -33 16 -22 57 23 96 66 57z m-330 -28
c9 -21 8 -28 -7 -45 -35 -39 -93 -1 -74 48 12 33 65 31 81 -3z m152 9 c17 -45
-7 -81 -48 -70 -51 13 -40 86 13 86 17 0 31 -6 35 -16z m-530 -136 c20 -28 20
-33 0 -52 -33 -33 -91 -5 -78 38 13 41 54 49 78 14z m144 10 c30 -30 3 -82
-40 -76 -29 4 -47 50 -28 72 15 19 51 21 68 4z m150 0 c7 -7 12 -21 12 -33 0
-12 -5 -26 -12 -33 -7 -7 -21 -12 -33 -12 -12 0 -26 5 -33 12 -28 28 -7 78 33
78 12 0 26 -5 33 -12z m156 -9 c15 -22 11 -48 -8 -61 -21 -14 -55 -8 -66 11
-14 27 -13 37 6 55 22 22 50 20 68 -5z m154 9 c7 -7 12 -21 12 -33 0 -12 -5
-26 -12 -33 -7 -7 -21 -12 -33 -12 -12 0 -26 5 -33 12 -28 28 -7 78 33 78 12
0 26 -5 33 -12z m154 -14 c14 -31 1 -57 -31 -62 -28 -4 -51 14 -51 42 0 50 62
65 82 20z m136 14 c7 -7 12 -21 12 -33 0 -44 -60 -63 -80 -26 -14 27 -13 37 6
55 18 19 45 21 62 4z m-523 -142 c23 -34 5 -66 -35 -66 -40 0 -58 32 -35 66 8
13 24 24 35 24 11 0 27 -11 35 -24z m154 10 c7 -8 11 -27 9 -43 -2 -22 -9 -29
-31 -31 -50 -6 -75 38 -41 72 19 20 48 20 63 2z m-341 -18 c7 -7 12 -21 12
-33 0 -12 -5 -26 -12 -33 -7 -7 -21 -12 -33 -12 -12 0 -26 5 -33 12 -7 7 -12
21 -12 33 0 12 5 26 12 33 7 7 21 12 33 12 12 0 26 -5 33 -12z m533 -9 c16
-30 -3 -69 -34 -69 -29 0 -47 17 -47 45 0 45 60 63 81 24z m-683 -11 c7 -7 12
-21 12 -33 0 -12 -5 -26 -12 -33 -7 -7 -21 -12 -33 -12 -12 0 -26 5 -33 12 -7
7 -12 21 -12 33 0 12 5 26 12 33 7 7 21 12 33 12 12 0 26 -5 33 -12z m834 -14
c14 -31 1 -57 -31 -62 -28 -4 -51 14 -51 42 0 50 62 65 82 20z m-574 -76 c7
-7 12 -21 12 -33 0 -12 -5 -26 -12 -33 -7 -7 -21 -12 -33 -12 -12 0 -26 5 -33
12 -7 7 -12 21 -12 33 0 12 5 26 12 33 7 7 21 12 33 12 12 0 26 -5 33 -12z
m314 -14 c14 -31 1 -57 -31 -62 -28 -4 -51 14 -51 42 0 50 62 65 82 20z m-157
-38 c23 -34 5 -66 -35 -66 -44 0 -64 44 -34 74 23 23 51 20 69 -8z m-336 4
c36 -19 36 -61 0 -81 -44 -23 -84 36 -48 72 22 22 24 22 48 9z m659 -37 c4
-27 -31 -57 -57 -48 -33 10 -39 54 -11 77 20 16 25 17 44 5 12 -8 22 -23 24
-34z m-500 -65 c7 -7 12 -21 12 -33 0 -12 -5 -26 -12 -33 -27 -27 -78 -7 -78
29 0 39 52 63 78 37z m347 -8 c15 -17 16 -24 7 -46 -10 -21 -18 -25 -45 -22
-27 2 -33 8 -35 31 -6 53 38 75 73 37z m-171 -42 c13 -19 14 -25 2 -43 -18
-27 -43 -31 -67 -9 -23 21 -24 37 -3 58 22 22 50 20 68 -6z"/>
<path d="M3341 2334 c-17 -14 -36 -42 -42 -63 -29 -96 79 -183 170 -137 41 22
61 59 61 112 0 98 -114 152 -189 88z"/>
</g>
</svg>
